# Blender v3.5.1 OBJ File: 'Alien Slime.blend'
# www.blender.org
mtllib level.mtl
v -33.150002 -1.000000 11.599998
v -33.150002 1.000000 11.599998
v -33.150002 -1.000000 -11.599998
v -33.150002 1.000000 -11.599998
v 33.150002 -1.000000 11.599998
v 33.150002 1.000000 11.599998
v 33.150002 -1.000000 -11.599998
v 33.150002 1.000000 -11.599998
v -33.150002 -1.000000 9.055975
v -33.150002 1.000000 9.055975
v 33.150002 -1.000000 9.055975
v 33.150002 1.000000 9.055975
v 33.150002 4.412966 9.055975
v 33.150002 4.412966 11.599998
v -33.150002 4.412966 11.599998
v -33.150002 4.412966 9.055975
v -33.150002 1.000000 -9.020267
v 33.150002 -1.000000 -9.020267
v -33.150002 -1.000000 -9.020268
v 33.150002 1.000000 -9.020268
v -33.150002 4.697916 -9.020267
v -33.150002 4.697916 -11.599998
v 33.150002 4.697916 -11.599998
v 33.150002 4.697916 -9.020268
v 26.909395 -1.000000 -11.599998
v 26.909395 1.000000 -11.599998
v 26.909395 -1.000000 11.599998
v 26.909395 1.000000 11.599998
v 26.909395 1.000000 9.055975
v 26.909395 -1.000000 9.055975
v 26.909395 4.412966 11.599998
v 26.909395 4.412966 9.055975
v 26.909395 -1.000000 -9.020267
v 26.909395 1.000000 -9.020268
v 26.909395 4.697916 -11.599998
v 26.909395 4.697916 -9.020268
v 33.150002 1.392857 -9.020268
v 33.150002 1.392857 9.055975
v 26.909395 1.392857 9.055975
v 26.909395 1.392857 -9.020268
vt 0.625000 0.187500
vt 0.375000 0.250000
vt 0.375000 0.187500
vt 0.625000 0.375000
vt 0.375000 0.500000
vt 0.375000 0.375000
vt 0.625000 0.625000
vt 0.375000 0.750000
vt 0.375000 0.625000
vt 0.625000 0.875000
vt 0.375000 1.000000
vt 0.375000 0.875000
vt 0.250000 0.750000
vt 0.250000 0.625000
vt 0.625000 0.000000
vt 0.625000 0.125000
vt 0.625000 0.125000
vt 0.875000 0.562500
vt 0.750000 0.625000
vt 0.750000 0.562500
vt 0.375000 0.562500
vt 0.250000 0.562500
vt 0.625000 0.562500
vt 0.375000 0.125000
vt 0.375000 0.000000
vt 0.875000 0.625000
vt 0.750000 0.750000
vt 0.750000 0.625000
vt 0.625000 0.750000
vt 0.625000 0.875000
vt 0.875000 0.625000
vt 0.625000 0.750000
vt 0.625000 0.500000
vt 0.250000 0.500000
vt 0.625000 0.250000
vt 0.625000 0.250000
vt 0.875000 0.500000
vt 0.750000 0.562500
vt 0.750000 0.500000
vt 0.625000 0.562500
vt 0.625000 0.375000
vt 0.875000 0.562500
vt 0.625000 0.500000
vt 0.125000 0.562500
vt 0.125000 0.500000
vt 0.625000 0.625000
vt 0.625000 1.000000
vt 0.625000 1.000000
vt 0.125000 0.625000
vt 0.750000 0.625000
vt 0.125000 0.750000
vt 0.750000 0.562500
vt 0.625000 0.625000
vt 0.625000 0.562500
vt 0.625000 0.000000
vt 0.875000 0.750000
vt 0.625000 0.187500
vn -1.0000 -0.0000 0.0000
vn 0.0000 0.0000 -1.0000
vn 1.0000 0.0000 0.0000
vn 0.0000 0.0000 1.0000
vn 0.0000 -1.0000 0.0000
vn 0.0000 1.0000 0.0000
usemtl None
s off
f 17/1/1 3/2/1 19/3/1
f 26/4/2 7/5/2 25/6/2
f 12/7/3 5/8/3 11/9/3
f 28/10/4 1/11/4 27/12/4
f 11/9/5 27/13/5 30/14/5
f 2/15/1 16/16/1 10/17/1
f 17/18/6 29/19/6 34/20/6
f 18/21/5 30/14/5 33/22/5
f 20/23/3 11/9/3 18/21/3
f 2/15/1 9/24/1 1/25/1
f 16/26/6 31/27/6 32/28/6
f 6/29/4 31/30/4 28/10/4
f 10/31/2 32/28/2 29/19/2
f 12/7/3 14/32/3 6/29/3
f 8/33/3 18/21/3 7/5/3
f 7/5/5 33/22/5 25/34/5
f 17/1/1 22/35/1 4/36/1
f 10/17/1 19/3/1 9/24/1
f 22/37/6 36/38/6 35/39/6
f 8/33/3 24/40/3 20/23/3
f 4/36/2 35/41/2 26/4/2
f 20/23/4 36/38/4 34/20/4
f 34/20/4 21/42/4 17/18/4
f 26/4/2 23/43/2 8/33/2
f 35/39/6 24/40/6 23/43/6
f 25/34/5 19/44/5 3/45/5
f 29/19/2 13/46/2 12/7/2
f 28/10/4 15/47/4 2/48/4
f 32/28/6 14/32/6 13/46/6
f 33/22/5 9/49/5 19/44/5
f 12/7/4 39/50/4 29/19/4
f 30/14/5 1/51/5 9/49/5
f 6/29/4 27/12/4 5/8/4
f 4/36/2 25/6/2 3/2/2
f 40/52/6 38/53/6 37/54/6
f 34/20/2 37/54/2 20/23/2
f 20/23/3 38/53/3 12/7/3
f 29/19/1 40/52/1 34/20/1
f 17/1/1 4/36/1 3/2/1
f 26/4/2 8/33/2 7/5/2
f 12/7/3 6/29/3 5/8/3
f 28/10/4 2/48/4 1/11/4
f 11/9/5 5/8/5 27/13/5
f 2/15/1 15/55/1 16/16/1
f 17/18/6 10/31/6 29/19/6
f 18/21/5 11/9/5 30/14/5
f 20/23/3 12/7/3 11/9/3
f 2/15/1 10/17/1 9/24/1
f 16/26/6 15/56/6 31/27/6
f 6/29/4 14/32/4 31/30/4
f 10/31/2 16/26/2 32/28/2
f 12/7/3 13/46/3 14/32/3
f 8/33/3 20/23/3 18/21/3
f 7/5/5 18/21/5 33/22/5
f 17/1/1 21/57/1 22/35/1
f 10/17/1 17/1/1 19/3/1
f 22/37/6 21/42/6 36/38/6
f 8/33/3 23/43/3 24/40/3
f 4/36/2 22/35/2 35/41/2
f 20/23/4 24/40/4 36/38/4
f 34/20/4 36/38/4 21/42/4
f 26/4/2 35/41/2 23/43/2
f 35/39/6 36/38/6 24/40/6
f 25/34/5 33/22/5 19/44/5
f 29/19/2 32/28/2 13/46/2
f 28/10/4 31/30/4 15/47/4
f 32/28/6 31/27/6 14/32/6
f 33/22/5 30/14/5 9/49/5
f 12/7/4 38/53/4 39/50/4
f 30/14/5 27/13/5 1/51/5
f 6/29/4 28/10/4 27/12/4
f 4/36/2 26/4/2 25/6/2
f 40/52/6 39/50/6 38/53/6
f 34/20/2 40/52/2 37/54/2
f 20/23/3 37/54/3 38/53/3
f 29/19/1 39/50/1 40/52/1
v -1.000000 0.584237 1.000000
v -1.000000 2.584237 1.000000
v -1.000000 0.584237 -1.000000
v -1.000000 2.584237 -1.000000
v 1.000000 0.584237 1.000000
v 1.000000 2.584237 1.000000
v 1.000000 0.584237 -1.000000
v 1.000000 2.584237 -1.000000
vt 0.625000 0.000000
vt 0.375000 0.250000
vt 0.375000 0.000000
vt 0.625000 0.250000
vt 0.375000 0.500000
vt 0.625000 0.500000
vt 0.375000 0.750000
vt 0.625000 0.750000
vt 0.375000 1.000000
vt 0.125000 0.750000
vt 0.125000 0.500000
vt 0.875000 0.500000
vt 0.625000 1.000000
vt 0.875000 0.750000
vn -1.0000 0.0000 0.0000
vn 0.0000 0.0000 -1.0000
vn 1.0000 0.0000 0.0000
vn 0.0000 0.0000 1.0000
vn 0.0000 -1.0000 0.0000
vn 0.0000 1.0000 0.0000
usemtl None
s off
f 42/58/7 43/59/7 41/60/7
f 44/61/8 47/62/8 43/59/8
f 48/63/9 45/64/9 47/62/9
f 46/65/10 41/66/10 45/64/10
f 47/62/11 41/67/11 43/68/11
f 44/69/12 46/65/12 48/63/12
f 42/58/7 44/61/7 43/59/7
f 44/61/8 48/63/8 47/62/8
f 48/63/9 46/65/9 45/64/9
f 46/65/10 42/70/10 41/66/10
f 47/62/11 45/64/11 41/67/11
f 44/69/12 42/71/12 46/65/12
