{
	"asset":{
		"generator":"Khronos glTF Blender I/O v3.5.30",
		"version":"2.0"
	},
	"scene":0,
	"scenes":[
		{
			"name":"Scene",
			"nodes":[
				0
			]
		}
	],
	"nodes":[
		{
			"mesh":0,
			"name":"tileLarge_teamBlue",
			"scale":[
				3,
				1,
				3
			]
		}
	],
	"materials":[
		{
			"name":"Blue",
			"pbrMetallicRoughness":{
				"baseColorFactor":[
					0.1268673837184906,
					0.4590684771537781,
					1,
					1
				],
				"metallicFactor":0,
				"roughnessFactor":0.20000000298023224
			}
		},
		{
			"name":"Metal",
			"pbrMetallicRoughness":{
				"baseColorFactor":[
					0.40126433968544006,
					0.47849249839782715,
					0.5173344612121582,
					1
				],
				"metallicFactor":0.20000000298023224,
				"roughnessFactor":0.30000001192092896
			}
		}
	],
	"meshes":[
		{
			"name":"Cube.1606",
			"primitives":[
				{
					"attributes":{
						"POSITION":0,
						"TEXCOORD_0":1,
						"NORMAL":2,
						"TANGENT":3
					},
					"indices":4,
					"material":0
				},
				{
					"attributes":{
						"POSITION":5,
						"TEXCOORD_0":6,
						"NORMAL":7,
						"TANGENT":8
					},
					"indices":9,
					"material":1
				}
			]
		}
	],
	"accessors":[
		{
			"bufferView":0,
			"componentType":5126,
			"count":142,
			"max":[
				3,
				1,
				3
			],
			"min":[
				-3,
				0.5,
				-3
			],
			"type":"VEC3"
		},
		{
			"bufferView":1,
			"componentType":5126,
			"count":142,
			"type":"VEC2"
		},
		{
			"bufferView":2,
			"componentType":5126,
			"count":142,
			"type":"VEC3"
		},
		{
			"bufferView":3,
			"componentType":5126,
			"count":142,
			"type":"VEC4"
		},
		{
			"bufferView":4,
			"componentType":5123,
			"count":522,
			"type":"SCALAR"
		},
		{
			"bufferView":5,
			"componentType":5126,
			"count":138,
			"max":[
				3,
				0.5,
				3
			],
			"min":[
				-3,
				0,
				-3
			],
			"type":"VEC3"
		},
		{
			"bufferView":6,
			"componentType":5126,
			"count":138,
			"type":"VEC2"
		},
		{
			"bufferView":7,
			"componentType":5126,
			"count":138,
			"type":"VEC3"
		},
		{
			"bufferView":8,
			"componentType":5126,
			"count":138,
			"type":"VEC4"
		},
		{
			"bufferView":9,
			"componentType":5123,
			"count":522,
			"type":"SCALAR"
		}
	],
	"bufferViews":[
		{
			"buffer":0,
			"byteLength":1704,
			"byteOffset":0,
			"target":34962
		},
		{
			"buffer":0,
			"byteLength":1136,
			"byteOffset":1704,
			"target":34962
		},
		{
			"buffer":0,
			"byteLength":1704,
			"byteOffset":2840,
			"target":34962
		},
		{
			"buffer":0,
			"byteLength":2272,
			"byteOffset":4544,
			"target":34962
		},
		{
			"buffer":0,
			"byteLength":1044,
			"byteOffset":6816,
			"target":34963
		},
		{
			"buffer":0,
			"byteLength":1656,
			"byteOffset":7860,
			"target":34962
		},
		{
			"buffer":0,
			"byteLength":1104,
			"byteOffset":9516,
			"target":34962
		},
		{
			"buffer":0,
			"byteLength":1656,
			"byteOffset":10620,
			"target":34962
		},
		{
			"buffer":0,
			"byteLength":2208,
			"byteOffset":12276,
			"target":34962
		},
		{
			"buffer":0,
			"byteLength":1044,
			"byteOffset":14484,
			"target":34963
		}
	],
	"buffers":[
		{
			"byteLength":15528,
			"uri":"testLevel.bin"
		}
	]
}
