{
	"asset":{
		"generator":"Khronos glTF Blender I/O v3.5.30",
		"version":"2.0"
	},
	"scene":0,
	"scenes":[
		{
			"name":"Scene",
			"nodes":[
				0,
				1
			]
		}
	],
	"nodes":[
		{
			"mesh":0,
			"name":"Object_2",
			"rotation":[
				-0.70710688829422,
				0,
				0,
				0.7071066498756409
			],
			"scale":[
				0.6000000238418579,
				0.5999998450279236,
				0.5999998450279236
			]
		},
		{
			"mesh":1,
			"name":"Object_3",
			"rotation":[
				-0.70710688829422,
				0,
				0,
				0.7071066498756409
			],
			"scale":[
				0.6000000238418579,
				0.5999998450279236,
				0.5999998450279236
			]
		}
	],
	"materials":[
		{
			"doubleSided":true,
			"emissiveFactor":[
				1,
				1,
				1
			],
			"emissiveTexture":{
				"index":0
			},
			"name":"MeshSG",
			"normalTexture":{
				"index":1
			},
			"pbrMetallicRoughness":{
				"baseColorTexture":{
					"index":2
				},
				"metallicRoughnessTexture":{
					"index":3
				}
			}
		},
		{
			"alphaMode":"BLEND",
			"doubleSided":true,
			"emissiveFactor":[
				1,
				1,
				1
			],
			"emissiveTexture":{
				"index":4
			},
			"name":"lambert5SG",
			"pbrMetallicRoughness":{
				"baseColorFactor":[
					0.4938572943210602,
					0.4938572943210602,
					0.4938572943210602,
					1
				],
				"baseColorTexture":{
					"index":5
				},
				"metallicFactor":0
			}
		}
	],
	"meshes":[
		{
			"name":"Object_0.001",
			"primitives":[
				{
					"attributes":{
						"POSITION":0,
						"TEXCOORD_0":1,
						"NORMAL":2,
						"TANGENT":3
					},
					"indices":4,
					"material":0
				}
			]
		},
		{
			"name":"Object_1",
			"primitives":[
				{
					"attributes":{
						"POSITION":5,
						"TEXCOORD_0":6,
						"NORMAL":7,
						"TANGENT":8
					},
					"indices":9,
					"material":1
				}
			]
		}
	],
	"textures":[
		{
			"sampler":0,
			"source":0
		},
		{
			"sampler":0,
			"source":1
		},
		{
			"sampler":0,
			"source":2
		},
		{
			"sampler":0,
			"source":3
		},
		{
			"sampler":0,
			"source":4
		},
		{
			"sampler":0,
			"source":5
		}
	],
	"images":[
		{
			"mimeType":"image/png",
			"name":"MeshSG_emissive",
			"uri":"MeshSG_emissive.png"
		},
		{
			"mimeType":"image/png",
			"name":"MeshSG_normal",
			"uri":"MeshSG_normal.png"
		},
		{
			"mimeType":"image/png",
			"name":"MeshSG_baseColor",
			"uri":"MeshSG_baseColor.png"
		},
		{
			"mimeType":"image/png",
			"name":"MeshSG_metallicRoughness",
			"uri":"MeshSG_metallicRoughness.png"
		},
		{
			"mimeType":"image/png",
			"name":"lambert5SG_emissive",
			"uri":"lambert5SG_emissive.png"
		},
		{
			"mimeType":"image/png",
			"name":"lambert5SG_baseColor",
			"uri":"lambert5SG_baseColor.png"
		}
	],
	"accessors":[
		{
			"bufferView":0,
			"componentType":5126,
			"count":2238,
			"max":[
				1.8250693082809448,
				1.0667682886123657,
				0.9435940384864807
			],
			"min":[
				-1.8250693082809448,
				-0.3105209469795227,
				-1.169243335723877
			],
			"type":"VEC3"
		},
		{
			"bufferView":1,
			"componentType":5126,
			"count":2238,
			"type":"VEC2"
		},
		{
			"bufferView":2,
			"componentType":5126,
			"count":2238,
			"type":"VEC3"
		},
		{
			"bufferView":3,
			"componentType":5126,
			"count":2238,
			"type":"VEC4"
		},
		{
			"bufferView":4,
			"componentType":5123,
			"count":9474,
			"type":"SCALAR"
		},
		{
			"bufferView":5,
			"componentType":5126,
			"count":815,
			"max":[
				1.6782963275909424,
				0.9227733016014099,
				1.169243335723877
			],
			"min":[
				-1.290223479270935,
				-1.0667682886123657,
				-1.0845061540603638
			],
			"type":"VEC3"
		},
		{
			"bufferView":6,
			"componentType":5126,
			"count":815,
			"type":"VEC2"
		},
		{
			"bufferView":7,
			"componentType":5126,
			"count":815,
			"type":"VEC3"
		},
		{
			"bufferView":8,
			"componentType":5126,
			"count":815,
			"type":"VEC4"
		},
		{
			"bufferView":9,
			"componentType":5123,
			"count":2364,
			"type":"SCALAR"
		}
	],
	"bufferViews":[
		{
			"buffer":0,
			"byteLength":26856,
			"byteOffset":0,
			"target":34962
		},
		{
			"buffer":0,
			"byteLength":17904,
			"byteOffset":26856,
			"target":34962
		},
		{
			"buffer":0,
			"byteLength":26856,
			"byteOffset":44760,
			"target":34962
		},
		{
			"buffer":0,
			"byteLength":35808,
			"byteOffset":71616,
			"target":34962
		},
		{
			"buffer":0,
			"byteLength":18948,
			"byteOffset":107424,
			"target":34963
		},
		{
			"buffer":0,
			"byteLength":9780,
			"byteOffset":126372,
			"target":34962
		},
		{
			"buffer":0,
			"byteLength":6520,
			"byteOffset":136152,
			"target":34962
		},
		{
			"buffer":0,
			"byteLength":9780,
			"byteOffset":142672,
			"target":34962
		},
		{
			"buffer":0,
			"byteLength":13040,
			"byteOffset":152452,
			"target":34962
		},
		{
			"buffer":0,
			"byteLength":4728,
			"byteOffset":165492,
			"target":34963
		}
	],
	"samplers":[
		{
			"magFilter":9729,
			"minFilter":9987
		}
	],
	"buffers":[
		{
			"byteLength":170220,
			"uri":"bookItem.bin"
		}
	]
}
