{
	"asset":{
		"generator":"Khronos glTF Blender I/O v3.5.30",
		"version":"2.0"
	},
	"scene":0,
	"scenes":[
		{
			"name":"Scene",
			"nodes":[
				0,
				1
			]
		}
	],
	"nodes":[
		{
			"mesh":0,
			"name":"book_texturing_v2_book_paladins_book_0",
			"rotation":[
				-0.70710688829422,
				0,
				0,
				0.7071066498756409
			],
			"scale":[
				6,
				6.000001430511475,
				6.000001430511475
			]
		},
		{
			"mesh":1,
			"name":"book_texturing_v2_pages_paladin_pages_0",
			"rotation":[
				-0.70710688829422,
				0,
				0,
				0.7071066498756409
			],
			"scale":[
				6,
				6.000001430511475,
				6.000001430511475
			]
		}
	],
	"animations":[
		{
			"channels":[
				{
					"sampler":0,
					"target":{
						"node":0,
						"path":"translation"
					}
				},
				{
					"sampler":1,
					"target":{
						"node":0,
						"path":"rotation"
					}
				},
				{
					"sampler":2,
					"target":{
						"node":0,
						"path":"scale"
					}
				}
			],
			"name":"book_texturing_v2_book_paladins_book_0",
			"samplers":[
				{
					"input":10,
					"interpolation":"LINEAR",
					"output":11
				},
				{
					"input":10,
					"interpolation":"LINEAR",
					"output":12
				},
				{
					"input":10,
					"interpolation":"LINEAR",
					"output":13
				}
			]
		},
		{
			"channels":[
				{
					"sampler":0,
					"target":{
						"node":1,
						"path":"translation"
					}
				},
				{
					"sampler":1,
					"target":{
						"node":1,
						"path":"rotation"
					}
				},
				{
					"sampler":2,
					"target":{
						"node":1,
						"path":"scale"
					}
				}
			],
			"name":"book_texturing_v2_pages_paladin_pages_0",
			"samplers":[
				{
					"input":10,
					"interpolation":"LINEAR",
					"output":14
				},
				{
					"input":10,
					"interpolation":"LINEAR",
					"output":15
				},
				{
					"input":10,
					"interpolation":"LINEAR",
					"output":16
				}
			]
		}
	],
	"materials":[
		{
			"doubleSided":true,
			"emissiveFactor":[
				1,
				1,
				1
			],
			"emissiveTexture":{
				"index":0
			},
			"name":"paladins_book",
			"pbrMetallicRoughness":{
				"baseColorTexture":{
					"index":1
				},
				"metallicFactor":0,
				"roughnessFactor":0.8334829807281494
			}
		},
		{
			"alphaMode":"BLEND",
			"doubleSided":true,
			"emissiveFactor":[
				1,
				1,
				1
			],
			"emissiveTexture":{
				"index":2
			},
			"name":"paladin_pages",
			"pbrMetallicRoughness":{
				"baseColorTexture":{
					"index":3
				},
				"metallicFactor":0
			}
		}
	],
	"meshes":[
		{
			"name":"book_texturing_v2_book_paladins_book_0",
			"primitives":[
				{
					"attributes":{
						"POSITION":0,
						"TEXCOORD_0":1,
						"NORMAL":2,
						"TANGENT":3
					},
					"indices":4,
					"material":0
				}
			]
		},
		{
			"name":"book_texturing_v2_pages_paladin_pages_0",
			"primitives":[
				{
					"attributes":{
						"POSITION":5,
						"TEXCOORD_0":6,
						"NORMAL":7,
						"TANGENT":8
					},
					"indices":9,
					"material":1
				}
			]
		}
	],
	"textures":[
		{
			"sampler":0,
			"source":0
		},
		{
			"sampler":0,
			"source":1
		},
		{
			"sampler":0,
			"source":2
		},
		{
			"sampler":0,
			"source":3
		}
	],
	"images":[
		{
			"mimeType":"image/png",
			"name":"paladins_book_emissive",
			"uri":"paladins_book_emissive.png"
		},
		{
			"mimeType":"image/png",
			"name":"paladins_book_baseColor",
			"uri":"paladins_book_baseColor.png"
		},
		{
			"mimeType":"image/png",
			"name":"paladin_pages_emissive",
			"uri":"paladin_pages_emissive.png"
		},
		{
			"mimeType":"image/png",
			"name":"paladin_pages_baseColor",
			"uri":"paladin_pages_baseColor.png"
		}
	],
	"accessors":[
		{
			"bufferView":0,
			"componentType":5126,
			"count":2282,
			"max":[
				0.2281336635351181,
				0.13334600627422333,
				0.11794924736022949
			],
			"min":[
				-0.2281336635351181,
				-0.03921930491924286,
				-0.14615538716316223
			],
			"type":"VEC3"
		},
		{
			"bufferView":1,
			"componentType":5126,
			"count":2282,
			"type":"VEC2"
		},
		{
			"bufferView":2,
			"componentType":5126,
			"count":2282,
			"type":"VEC3"
		},
		{
			"bufferView":3,
			"componentType":5126,
			"count":2282,
			"type":"VEC4"
		},
		{
			"bufferView":4,
			"componentType":5123,
			"count":9690,
			"type":"SCALAR"
		},
		{
			"bufferView":5,
			"componentType":5126,
			"count":600,
			"max":[
				0.18419988453388214,
				0.10620267689228058,
				0.14615538716316223
			],
			"min":[
				-0.1362762749195099,
				-0.13334600627422333,
				-0.13172276318073273
			],
			"type":"VEC3"
		},
		{
			"bufferView":6,
			"componentType":5126,
			"count":600,
			"type":"VEC2"
		},
		{
			"bufferView":7,
			"componentType":5126,
			"count":600,
			"type":"VEC3"
		},
		{
			"bufferView":8,
			"componentType":5126,
			"count":600,
			"type":"VEC4"
		},
		{
			"bufferView":9,
			"componentType":5123,
			"count":2148,
			"type":"SCALAR"
		},
		{
			"bufferView":10,
			"componentType":5126,
			"count":44,
			"max":[
				1.7916666666666667
			],
			"min":[
				0
			],
			"type":"SCALAR"
		},
		{
			"bufferView":11,
			"componentType":5126,
			"count":44,
			"type":"VEC3"
		},
		{
			"bufferView":12,
			"componentType":5126,
			"count":44,
			"type":"VEC4"
		},
		{
			"bufferView":13,
			"componentType":5126,
			"count":44,
			"type":"VEC3"
		},
		{
			"bufferView":14,
			"componentType":5126,
			"count":44,
			"type":"VEC3"
		},
		{
			"bufferView":15,
			"componentType":5126,
			"count":44,
			"type":"VEC4"
		},
		{
			"bufferView":16,
			"componentType":5126,
			"count":44,
			"type":"VEC3"
		}
	],
	"bufferViews":[
		{
			"buffer":0,
			"byteLength":27384,
			"byteOffset":0,
			"target":34962
		},
		{
			"buffer":0,
			"byteLength":18256,
			"byteOffset":27384,
			"target":34962
		},
		{
			"buffer":0,
			"byteLength":27384,
			"byteOffset":45640,
			"target":34962
		},
		{
			"buffer":0,
			"byteLength":36512,
			"byteOffset":73024,
			"target":34962
		},
		{
			"buffer":0,
			"byteLength":19380,
			"byteOffset":109536,
			"target":34963
		},
		{
			"buffer":0,
			"byteLength":7200,
			"byteOffset":128916,
			"target":34962
		},
		{
			"buffer":0,
			"byteLength":4800,
			"byteOffset":136116,
			"target":34962
		},
		{
			"buffer":0,
			"byteLength":7200,
			"byteOffset":140916,
			"target":34962
		},
		{
			"buffer":0,
			"byteLength":9600,
			"byteOffset":148116,
			"target":34962
		},
		{
			"buffer":0,
			"byteLength":4296,
			"byteOffset":157716,
			"target":34963
		},
		{
			"buffer":0,
			"byteLength":176,
			"byteOffset":162012
		},
		{
			"buffer":0,
			"byteLength":528,
			"byteOffset":162188
		},
		{
			"buffer":0,
			"byteLength":704,
			"byteOffset":162716
		},
		{
			"buffer":0,
			"byteLength":528,
			"byteOffset":163420
		},
		{
			"buffer":0,
			"byteLength":528,
			"byteOffset":163948
		},
		{
			"buffer":0,
			"byteLength":704,
			"byteOffset":164476
		},
		{
			"buffer":0,
			"byteLength":528,
			"byteOffset":165180
		}
	],
	"samplers":[
		{
			"magFilter":9729,
			"minFilter":9987
		}
	],
	"buffers":[
		{
			"byteLength":165708,
			"uri":"exambook.bin"
		}
	]
}
