# Blender v3.5.1 OBJ File: 'floors2.blend'
# www.blender.org
mtllib floors.mtl
o Base_Cube.019
v -10.500000 -2.010285 36.572094
v -10.500000 -0.010285 36.572094
v -10.500000 -2.010285 -36.731323
v -10.500000 -0.010285 -36.731323
v 10.500000 -2.010285 36.572094
v 10.500000 -0.010285 36.572094
v 10.500000 -2.010285 -36.731323
v 10.500000 -0.010285 -36.731323
v -10.500000 -2.010285 35.889549
v -10.500000 -0.010285 35.889549
v 10.500000 -2.010285 35.889549
v 10.500000 -0.010285 35.889549
v -10.500000 -0.010285 -36.130146
v 10.500000 -2.010285 -36.130146
v -10.500000 -2.010285 -36.130146
v 10.500000 -0.010285 -36.130146
v 9.794439 -2.010285 -36.731323
v 9.794439 -0.010285 -36.731323
v 9.794439 -2.010285 36.572094
v 9.794439 -0.010285 36.572094
v 9.794439 -0.010285 35.889549
v 9.794439 -2.010285 35.889549
v 9.794439 -2.010285 -36.130146
v 9.794439 -0.010285 -36.130146
v -9.952568 -2.010285 -36.731323
v -9.952568 -0.010285 36.572094
v -9.952568 -2.010285 35.889549
v -9.952568 -2.010285 -36.130146
v -9.952568 -0.010285 -36.731323
v -9.952568 -2.010285 36.572094
v -9.952568 -0.010285 35.889549
v -9.952568 -0.010285 -36.130146
v -10.500000 6.994248 -36.130146
v -10.500000 6.994248 -36.731323
v 9.794439 6.994248 -36.731323
v 10.500000 6.994248 -36.731323
v 10.500000 6.994248 35.889549
v 10.500000 6.994248 36.572094
v -9.952568 6.994248 36.572094
v -10.500000 6.994248 36.572094
v -10.500000 6.994248 35.889549
v 10.500000 6.994248 -36.130146
v 9.794439 6.994248 35.889549
v 9.794439 6.994248 -36.130146
v -9.952568 6.994248 -36.731323
v 9.794439 6.994248 36.572094
v -9.952568 6.994248 35.889549
v -9.952568 6.994248 -36.130146
vt 0.375000 0.247950
vt 0.625000 0.247950
vt 0.625000 0.250000
vt 0.375000 0.250000
vt 0.375000 0.491600
vt 0.625000 0.491600
vt 0.625000 0.500000
vt 0.375000 0.500000
vt 0.375000 0.747672
vt 0.625000 0.747672
vt 0.625000 0.750000
vt 0.375000 0.750000
vt 0.375000 0.993483
vt 0.625000 0.993483
vt 0.625000 1.000000
vt 0.375000 1.000000
vt 0.366600 0.747672
vt 0.366600 0.750000
vt 0.625000 0.758400
vt 0.625000 0.758400
vt 0.625000 0.993483
vt 0.625000 0.502050
vt 0.625000 0.502050
vt 0.625000 0.747672
vt 0.366600 0.502050
vt 0.375000 0.502050
vt 0.375000 0.000000
vt 0.625000 0.000000
vt 0.625000 0.002328
vt 0.375000 0.002328
vt 0.366600 0.500000
vt 0.625000 0.256517
vt 0.625000 0.256517
vt 0.625000 0.491600
vt 0.625000 0.000000
vt 0.625000 0.002328
vt 0.131517 0.500000
vt 0.131517 0.502050
vt 0.131517 0.747672
vt 0.868483 0.502050
vt 0.633399 0.502050
vt 0.633399 0.502050
vt 0.868483 0.502050
vt 0.625000 0.247950
vt 0.131517 0.750000
vt 0.375000 0.758400
vt 0.375000 0.256517
vt 0.125000 0.747672
vt 0.125000 0.750000
vt 0.125000 0.502050
vt 0.125000 0.500000
vt 0.868483 0.747672
vt 0.868483 0.747672
vt 0.633399 0.747672
vt 0.625000 0.500000
vt 0.875000 0.747672
vt 0.875000 0.750000
vt 0.868483 0.750000
vt 0.875000 0.502050
vt 0.868483 0.500000
vt 0.875000 0.500000
vt 0.633399 0.500000
vt 0.633399 0.747672
vt 0.633399 0.750000
vt 0.625000 0.750000
vt 0.625000 0.250000
vt 0.625000 1.000000
vn -1.0000 0.0000 0.0000
vn 0.0000 0.0000 -1.0000
vn 1.0000 0.0000 0.0000
vn 0.0000 0.0000 1.0000
vn 0.0000 -1.0000 0.0000
vn 0.0000 1.0000 0.0000
usemtl None
s off
f 15/1/1 13/2/1 4/3/1 3/4/1
f 17/5/2 18/6/2 8/7/2 7/8/2
f 11/9/3 12/10/3 6/11/3 5/12/3
f 30/13/4 26/14/4 2/15/4 1/16/4
f 22/17/5 11/9/5 5/12/5 19/18/5
f 26/14/4 20/19/4 46/20/4 39/21/4
f 12/10/3 16/22/3 42/23/3 37/24/3
f 23/25/5 14/26/5 11/9/5 22/17/5
f 14/26/3 16/22/3 12/10/3 11/9/3
f 1/27/1 2/28/1 10/29/1 9/30/1
f 7/8/3 8/7/3 16/22/3 14/26/3
f 17/31/5 7/8/5 14/26/5 23/25/5
f 18/6/2 29/32/2 45/33/2 35/34/2
f 9/30/1 10/29/1 13/2/1 15/1/1
f 10/29/1 2/28/1 40/35/1 41/36/1
f 25/37/5 17/31/5 23/25/5 28/38/5
f 28/38/5 23/25/5 22/17/5 27/39/5
f 32/40/4 24/41/4 44/42/4 48/43/4
f 13/2/1 10/29/1 41/36/1 33/44/1
f 27/39/5 22/17/5 19/18/5 30/45/5
f 5/12/4 6/11/4 20/19/4 19/46/4
f 25/47/2 29/32/2 18/6/2 17/5/2
f 3/4/2 4/3/2 29/32/2 25/47/2
f 9/48/5 27/39/5 30/45/5 1/49/5
f 15/50/5 28/38/5 27/39/5 9/48/5
f 3/51/5 25/37/5 28/38/5 15/50/5
f 31/52/3 32/40/3 48/43/3 47/53/3
f 24/41/6 32/40/6 31/52/6 21/54/6
f 8/7/2 18/6/2 35/34/2 36/55/2
f 19/46/4 20/19/4 26/14/4 30/13/4
f 47/53/6 41/56/6 40/57/6 39/58/6
f 48/43/6 33/59/6 41/56/6 47/53/6
f 45/60/6 34/61/6 33/59/6 48/43/6
f 36/55/6 35/62/6 44/42/6 42/23/6
f 42/23/6 44/42/6 43/63/6 37/24/6
f 37/24/6 43/63/6 46/64/6 38/65/6
f 35/62/6 45/60/6 48/43/6 44/42/6
f 43/63/6 47/53/6 39/58/6 46/64/6
f 6/11/3 12/10/3 37/24/3 38/65/3
f 16/22/3 8/7/3 36/55/3 42/23/3
f 20/19/4 6/11/4 38/65/4 46/20/4
f 4/3/1 13/2/1 33/44/1 34/66/1
f 24/41/1 21/54/1 43/63/1 44/42/1
f 21/54/2 31/52/2 47/53/2 43/63/2
f 29/32/2 4/3/2 34/66/2 45/33/2
f 2/15/4 26/14/4 39/21/4 40/67/4
o BaseStart_Cube.021
v -1.000000 -0.556073 0.999998
v -1.000000 1.443927 0.999998
v -1.000000 -0.556073 -1.000002
v -1.000000 1.443927 -1.000002
v 1.000000 -0.556073 0.999998
v 1.000000 1.443927 0.999998
v 1.000000 -0.556073 -1.000002
v 1.000000 1.443927 -1.000002
vt 0.375000 0.000000
vt 0.625000 0.000000
vt 0.625000 0.250000
vt 0.375000 0.250000
vt 0.625000 0.500000
vt 0.375000 0.500000
vt 0.625000 0.750000
vt 0.375000 0.750000
vt 0.625000 1.000000
vt 0.375000 1.000000
vt 0.125000 0.500000
vt 0.125000 0.750000
vt 0.875000 0.500000
vt 0.875000 0.750000
vn -1.0000 0.0000 0.0000
vn 0.0000 0.0000 -1.0000
vn 1.0000 0.0000 0.0000
vn 0.0000 0.0000 1.0000
vn 0.0000 -1.0000 0.0000
vn 0.0000 1.0000 0.0000
usemtl None
s off
f 49/68/7 50/69/7 52/70/7 51/71/7
f 51/71/8 52/70/8 56/72/8 55/73/8
f 55/73/9 56/72/9 54/74/9 53/75/9
f 53/75/10 54/74/10 50/76/10 49/77/10
f 51/78/11 55/73/11 53/75/11 49/79/11
f 56/72/12 52/80/12 50/81/12 54/74/12
o BaseEnd_Cube.022
v -3.000000 -1.178831 29.309198
v -3.000000 0.821169 29.309198
v -3.000000 -1.178831 23.309198
v -3.000000 0.821169 23.309198
v 3.000000 -1.178831 29.309198
v 3.000000 0.821169 29.309198
v 3.000000 -1.178831 23.309198
v 3.000000 0.821169 23.309198
vt 0.375000 0.000000
vt 0.625000 0.000000
vt 0.625000 0.250000
vt 0.375000 0.250000
vt 0.625000 0.500000
vt 0.375000 0.500000
vt 0.625000 0.750000
vt 0.375000 0.750000
vt 0.625000 1.000000
vt 0.375000 1.000000
vt 0.125000 0.500000
vt 0.125000 0.750000
vt 0.875000 0.500000
vt 0.875000 0.750000
vn -1.0000 0.0000 0.0000
vn 0.0000 0.0000 -1.0000
vn 1.0000 0.0000 0.0000
vn 0.0000 0.0000 1.0000
vn 0.0000 -1.0000 0.0000
vn 0.0000 1.0000 0.0000
usemtl None
s off
f 57/82/13 58/83/13 60/84/13 59/85/13
f 59/85/14 60/84/14 64/86/14 63/87/14
f 63/87/15 64/86/15 62/88/15 61/89/15
f 61/89/16 62/88/16 58/90/16 57/91/16
f 59/92/17 63/87/17 61/89/17 57/93/17
f 64/86/18 60/94/18 58/95/18 62/88/18
o Cube_Cube.027
v 2.994493 -0.582509 32.040993
v 2.994493 1.417491 32.040993
v 2.994493 -0.582509 30.715540
v 2.994493 1.417491 30.715540
v 7.436240 -0.582509 32.040993
v 7.436240 1.417491 32.040993
v 7.436240 -0.582509 30.715540
v 7.436240 1.417491 30.715540
vt 0.375000 0.000000
vt 0.625000 0.000000
vt 0.625000 0.250000
vt 0.375000 0.250000
vt 0.625000 0.500000
vt 0.375000 0.500000
vt 0.625000 0.750000
vt 0.375000 0.750000
vt 0.625000 1.000000
vt 0.375000 1.000000
vt 0.125000 0.500000
vt 0.125000 0.750000
vt 0.875000 0.500000
vt 0.875000 0.750000
vn -1.0000 0.0000 0.0000
vn 0.0000 0.0000 -1.0000
vn 1.0000 0.0000 0.0000
vn 0.0000 0.0000 1.0000
vn 0.0000 -1.0000 0.0000
vn 0.0000 1.0000 0.0000
usemtl None
s off
f 65/96/19 66/97/19 68/98/19 67/99/19
f 67/99/20 68/98/20 72/100/20 71/101/20
f 71/101/21 72/100/21 70/102/21 69/103/21
f 69/103/22 70/102/22 66/104/22 65/105/22
f 67/106/23 71/101/23 69/103/23 65/107/23
f 72/100/24 68/108/24 66/109/24 70/102/24
o Cube.002_Cube.028
v -8.509629 -0.582509 32.040993
v -8.509629 1.417491 32.040993
v -8.509629 -0.582509 30.715540
v -8.509629 1.417491 30.715540
v -4.067882 -0.582509 32.040993
v -4.067882 1.417491 32.040993
v -4.067882 -0.582509 30.715540
v -4.067882 1.417491 30.715540
vt 0.375000 0.000000
vt 0.625000 0.000000
vt 0.625000 0.250000
vt 0.375000 0.250000
vt 0.625000 0.500000
vt 0.375000 0.500000
vt 0.625000 0.750000
vt 0.375000 0.750000
vt 0.625000 1.000000
vt 0.375000 1.000000
vt 0.125000 0.500000
vt 0.125000 0.750000
vt 0.875000 0.500000
vt 0.875000 0.750000
vn -1.0000 0.0000 0.0000
vn 0.0000 0.0000 -1.0000
vn 1.0000 0.0000 0.0000
vn 0.0000 0.0000 1.0000
vn 0.0000 -1.0000 0.0000
vn 0.0000 1.0000 0.0000
usemtl None
s off
f 73/110/25 74/111/25 76/112/25 75/113/25
f 75/113/26 76/112/26 80/114/26 79/115/26
f 79/115/27 80/114/27 78/116/27 77/117/27
f 77/117/28 78/116/28 74/118/28 73/119/28
f 75/120/29 79/115/29 77/117/29 73/121/29
f 80/114/30 76/122/30 74/123/30 78/116/30
o Cube.003_Cube.047
v 2.144550 0.000001 9.990078
v 2.144550 2.000001 9.990078
v 2.144550 0.000001 8.074921
v 2.144550 2.000001 8.074921
v 5.423918 0.000001 9.990078
v 5.423918 2.000001 9.990078
v 5.423918 0.000001 8.074921
v 5.423918 2.000001 8.074921
v 3.544396 0.000001 8.074921
v 3.544396 2.000001 8.074921
v 3.544396 0.000001 9.990078
v 3.544396 2.000001 9.990078
v 4.765334 2.000001 8.074921
v 4.765334 0.000001 9.990078
v 4.765334 0.000001 8.074921
v 4.765334 2.000001 9.990078
v 2.144550 0.000001 8.968267
v 2.144550 2.000001 8.968267
v 5.423918 0.000001 8.968267
v 5.423918 2.000001 8.968267
v 3.544396 2.000001 8.968267
v 3.544396 0.000001 8.968267
v 4.765334 2.000001 8.968267
v 4.765334 0.000001 8.968267
v 2.144550 0.000001 9.187436
v 5.423918 2.000001 9.187436
v 3.544396 2.000001 9.187436
v 3.544396 0.000001 9.187436
v 4.765334 2.000001 9.187436
v 4.765334 0.000001 9.187436
v 2.144550 2.000001 9.187436
v 5.423918 0.000001 9.187436
v 3.544396 2.894964 8.968267
v 4.765334 2.894964 8.968267
v 3.544396 2.894964 9.187436
v 4.765334 2.894964 9.187436
vt 0.375000 0.133385
vt 0.625000 0.133385
vt 0.625000 0.250000
vt 0.375000 0.250000
vt 0.375000 0.449793
vt 0.625000 0.449793
vt 0.625000 0.500000
vt 0.375000 0.500000
vt 0.375000 0.645225
vt 0.625000 0.645225
vt 0.625000 0.750000
vt 0.375000 0.750000
vt 0.375000 0.893284
vt 0.625000 0.893284
vt 0.625000 1.000000
vt 0.375000 1.000000
vt 0.324793 0.645225
vt 0.324793 0.750000
vt 0.768284 0.645225
vt 0.875000 0.645225
vt 0.875000 0.750000
vt 0.768284 0.750000
vt 0.675207 0.645225
vt 0.675207 0.750000
vt 0.125000 0.645225
vt 0.231716 0.645225
vt 0.231716 0.750000
vt 0.125000 0.750000
vt 0.375000 0.800207
vt 0.625000 0.800207
vt 0.625000 0.356716
vt 0.375000 0.356716
vt 0.231716 0.500000
vt 0.324793 0.500000
vt 0.324793 0.616615
vt 0.231716 0.616615
vt 0.675207 0.500000
vt 0.675207 0.616615
vt 0.625000 0.616615
vt 0.125000 0.500000
vt 0.125000 0.616615
vt 0.768284 0.500000
vt 0.768284 0.616615
vt 0.875000 0.500000
vt 0.875000 0.616615
vt 0.375000 0.616615
vt 0.375000 0.104775
vt 0.625000 0.104775
vt 0.375000 0.000000
vt 0.625000 0.000000
vt 0.675207 0.645225
vt 0.768284 0.645225
vt 0.675207 0.616615
vt 0.768284 0.616615
vn -1.0000 0.0000 0.0000
vn 0.0000 0.0000 -1.0000
vn 1.0000 0.0000 0.0000
vn 0.0000 0.0000 1.0000
vn 0.0000 -1.0000 0.0000
vn 0.0000 1.0000 0.0000
usemtl None
s off
f 97/124/31 98/125/31 84/126/31 83/127/31
f 95/128/32 93/129/32 88/130/32 87/131/32
f 112/132/33 106/133/33 86/134/33 85/135/33
f 91/136/34 92/137/34 82/138/34 81/139/34
f 110/140/35 112/132/35 85/135/35 94/141/35
f 107/142/36 111/143/36 82/144/36 92/145/36
f 109/146/36 107/142/36 92/145/36 96/147/36
f 105/148/35 108/149/35 91/150/35 81/151/35
f 94/152/34 96/153/34 92/137/34 91/136/34
f 83/127/32 84/126/32 90/154/32 89/155/32
f 85/135/34 86/134/34 96/153/34 94/152/34
f 106/133/36 109/146/36 96/147/36 86/134/36
f 108/149/35 110/140/35 94/141/35 91/150/35
f 89/155/32 90/154/32 93/129/32 95/128/32
f 89/156/35 95/157/35 104/158/35 102/159/35
f 88/130/36 93/160/36 103/161/36 100/162/36
f 83/163/35 89/156/35 102/159/35 97/164/35
f 93/160/36 90/165/36 101/166/36 103/161/36
f 90/165/36 84/167/36 98/168/36 101/166/36
f 95/157/35 87/131/35 99/169/35 104/158/35
f 87/131/33 88/130/33 100/162/33 99/169/33
f 105/170/31 111/171/31 98/125/31 97/124/31
f 81/172/31 82/173/31 111/171/31 105/170/31
f 102/159/35 104/158/35 110/140/35 108/149/35
f 100/162/36 103/161/36 109/146/36 106/133/36
f 97/164/35 102/159/35 108/149/35 105/148/35
f 107/142/34 109/146/34 116/174/34 115/175/34
f 101/166/36 98/168/36 111/143/36 107/142/36
f 104/158/35 99/169/35 112/132/35 110/140/35
f 99/169/33 100/162/33 106/133/33 112/132/33
f 114/176/36 113/177/36 115/175/36 116/174/36
f 103/161/32 101/166/32 113/177/32 114/176/32
f 109/146/33 103/161/33 114/176/33 116/174/33
f 101/166/31 107/142/31 115/175/31 113/177/31
o Cube.010_Cube.049
v -6.268449 0.000001 8.481319
v -6.268449 2.000001 8.481319
v -6.268449 0.000001 6.566163
v -6.268449 2.000001 6.566163
v -2.989081 0.000001 8.481319
v -2.989081 2.000001 8.481319
v -2.989081 0.000001 6.566163
v -2.989081 2.000001 6.566163
v -4.639585 0.000001 6.566163
v -4.639585 2.000001 6.566163
v -4.639585 0.000001 8.481319
v -4.639585 2.000001 8.481319
v -3.319947 2.000001 6.566163
v -3.319947 0.000001 8.481319
v -3.319947 0.000001 6.566163
v -3.319947 2.000001 8.481319
v -6.268449 0.000001 7.542345
v -6.268449 2.000001 7.542345
v -2.989081 0.000001 7.542345
v -2.989081 2.000001 7.542345
v -4.639585 2.000001 7.542345
v -4.639585 0.000001 7.542345
v -3.319947 2.000001 7.542345
v -3.319947 0.000001 7.542345
v -6.268449 0.000001 7.673159
v -2.989081 2.000001 7.673159
v -4.639585 2.000001 7.673159
v -4.639585 0.000001 7.673159
v -3.319947 2.000001 7.673159
v -3.319947 0.000001 7.673159
v -6.268449 2.000001 7.673159
v -2.989081 0.000001 7.673159
v -4.639585 2.894964 7.542345
v -3.319947 2.894964 7.542345
v -4.639585 2.894964 7.673159
v -3.319947 2.894964 7.673159
vt 0.375000 0.122571
vt 0.625000 0.122571
vt 0.625000 0.250000
vt 0.375000 0.250000
vt 0.375000 0.474777
vt 0.625000 0.474777
vt 0.625000 0.500000
vt 0.375000 0.500000
vt 0.375000 0.644505
vt 0.625000 0.644505
vt 0.625000 0.750000
vt 0.375000 0.750000
vt 0.375000 0.875825
vt 0.625000 0.875825
vt 0.625000 1.000000
vt 0.375000 1.000000
vt 0.349777 0.644505
vt 0.349777 0.750000
vt 0.750825 0.644505
vt 0.875000 0.644505
vt 0.875000 0.750000
vt 0.750825 0.750000
vt 0.650223 0.644505
vt 0.650223 0.750000
vt 0.125000 0.644505
vt 0.249175 0.644505
vt 0.249175 0.750000
vt 0.125000 0.750000
vt 0.375000 0.775223
vt 0.625000 0.775223
vt 0.625000 0.374175
vt 0.375000 0.374175
vt 0.249175 0.500000
vt 0.349777 0.500000
vt 0.349777 0.627429
vt 0.249175 0.627429
vt 0.650223 0.500000
vt 0.650223 0.627429
vt 0.625000 0.627429
vt 0.125000 0.500000
vt 0.125000 0.627429
vt 0.750825 0.500000
vt 0.750825 0.627429
vt 0.875000 0.500000
vt 0.875000 0.627429
vt 0.375000 0.627429
vt 0.375000 0.105495
vt 0.625000 0.105495
vt 0.375000 0.000000
vt 0.625000 0.000000
vt 0.750825 0.627429
vt 0.650223 0.627429
vt 0.750825 0.644505
vt 0.650223 0.644505
vn -1.0000 0.0000 0.0000
vn 0.0000 0.0000 -1.0000
vn 1.0000 0.0000 0.0000
vn 0.0000 0.0000 1.0000
vn 0.0000 -1.0000 0.0000
vn 0.0000 1.0000 0.0000
usemtl None
s off
f 133/178/37 134/179/37 120/180/37 119/181/37
f 131/182/38 129/183/38 124/184/38 123/185/38
f 148/186/39 142/187/39 122/188/39 121/189/39
f 127/190/40 128/191/40 118/192/40 117/193/40
f 146/194/41 148/186/41 121/189/41 130/195/41
f 143/196/42 147/197/42 118/198/42 128/199/42
f 145/200/42 143/196/42 128/199/42 132/201/42
f 141/202/41 144/203/41 127/204/41 117/205/41
f 130/206/40 132/207/40 128/191/40 127/190/40
f 119/181/38 120/180/38 126/208/38 125/209/38
f 121/189/40 122/188/40 132/207/40 130/206/40
f 142/187/42 145/200/42 132/201/42 122/188/42
f 144/203/41 146/194/41 130/195/41 127/204/41
f 125/209/38 126/208/38 129/183/38 131/182/38
f 125/210/41 131/211/41 140/212/41 138/213/41
f 124/184/42 129/214/42 139/215/42 136/216/42
f 119/217/41 125/210/41 138/213/41 133/218/41
f 129/214/42 126/219/42 137/220/42 139/215/42
f 126/219/42 120/221/42 134/222/42 137/220/42
f 131/211/41 123/185/41 135/223/41 140/212/41
f 123/185/39 124/184/39 136/216/39 135/223/39
f 141/224/37 147/225/37 134/179/37 133/178/37
f 117/226/37 118/227/37 147/225/37 141/224/37
f 138/213/41 140/212/41 146/194/41 144/203/41
f 136/216/42 139/215/42 145/200/42 142/187/42
f 133/218/41 138/213/41 144/203/41 141/202/41
f 139/215/38 137/220/38 149/228/38 150/229/38
f 137/220/42 134/222/42 147/197/42 143/196/42
f 140/212/41 135/223/41 148/186/41 146/194/41
f 135/223/39 136/216/39 142/187/39 148/186/39
f 150/229/42 149/228/42 151/230/42 152/231/42
f 145/200/39 139/215/39 150/229/39 152/231/39
f 137/220/37 143/196/37 151/230/37 149/228/37
f 143/196/40 145/200/40 152/231/40 151/230/40
o Cube.011_Cube
v 6.755372 2.503841 -17.961903
v 6.755372 -0.455942 -17.961903
v 6.755372 2.503841 -19.074184
v 6.755372 -0.455942 -19.074184
v 7.517773 2.503841 -17.961903
v 7.517773 -0.455942 -17.961903
v 7.517773 2.503841 -19.074184
v 7.517773 -0.455942 -19.074184
vt 0.375000 0.000000
vt 0.375000 0.250000
vt 0.625000 0.250000
vt 0.625000 0.000000
vt 0.375000 0.500000
vt 0.625000 0.500000
vt 0.375000 0.750000
vt 0.625000 0.750000
vt 0.375000 1.000000
vt 0.625000 1.000000
vt 0.125000 0.500000
vt 0.125000 0.750000
vt 0.875000 0.750000
vt 0.875000 0.500000
vn -1.0000 0.0000 0.0000
vn 0.0000 0.0000 -1.0000
vn 1.0000 0.0000 0.0000
vn 0.0000 0.0000 1.0000
vn 0.0000 1.0000 0.0000
vn 0.0000 -1.0000 0.0000
usemtl None
s off
f 153/232/43 155/233/43 156/234/43 154/235/43
f 155/233/44 159/236/44 160/237/44 156/234/44
f 159/236/45 157/238/45 158/239/45 160/237/45
f 157/238/46 153/240/46 154/241/46 158/239/46
f 155/242/47 153/243/47 157/238/47 159/236/47
f 160/237/48 158/239/48 154/244/48 156/245/48
o Cube.028_Cube.073
v -1.216728 -0.364568 -15.738614
v -1.216728 1.635432 -15.738614
v -1.216728 -0.364568 -18.114552
v -1.216728 1.635432 -18.114552
v 1.082689 -0.364568 -15.738614
v 1.082689 1.635432 -15.738614
v 1.082689 -0.364568 -18.114552
v 1.082689 1.635432 -18.114552
vt 0.375000 0.000000
vt 0.625000 0.000000
vt 0.625000 0.250000
vt 0.375000 0.250000
vt 0.625000 0.500000
vt 0.375000 0.500000
vt 0.625000 0.750000
vt 0.375000 0.750000
vt 0.625000 1.000000
vt 0.375000 1.000000
vt 0.125000 0.500000
vt 0.125000 0.750000
vt 0.875000 0.500000
vt 0.875000 0.750000
vn -1.0000 0.0000 0.0000
vn 0.0000 0.0000 -1.0000
vn 1.0000 0.0000 0.0000
vn 0.0000 0.0000 1.0000
vn 0.0000 -1.0000 0.0000
vn 0.0000 1.0000 0.0000
usemtl None
s off
f 161/246/49 162/247/49 164/248/49 163/249/49
f 163/249/50 164/248/50 168/250/50 167/251/50
f 167/251/51 168/250/51 166/252/51 165/253/51
f 165/253/52 166/252/52 162/254/52 161/255/52
f 163/256/53 167/251/53 165/253/53 161/257/53
f 168/250/54 164/258/54 162/259/54 166/252/54
o Cube.029_Cube.074
v -0.038729 0.000000 -18.966913
v -0.038729 0.752248 -18.966913
v -0.038729 0.000000 -19.877634
v -0.038729 0.752248 -19.877634
v 0.655964 0.000000 -18.966913
v 0.655964 0.752248 -18.966913
v 0.655964 0.000000 -19.877634
v 0.655964 0.752248 -19.877634
vt 0.375000 0.000000
vt 0.625000 0.000000
vt 0.625000 0.250000
vt 0.375000 0.250000
vt 0.625000 0.500000
vt 0.375000 0.500000
vt 0.625000 0.750000
vt 0.375000 0.750000
vt 0.625000 1.000000
vt 0.375000 1.000000
vt 0.125000 0.500000
vt 0.125000 0.750000
vt 0.875000 0.500000
vt 0.875000 0.750000
vn -1.0000 0.0000 0.0000
vn 0.0000 0.0000 -1.0000
vn 1.0000 0.0000 0.0000
vn 0.0000 0.0000 1.0000
vn 0.0000 -1.0000 0.0000
vn 0.0000 1.0000 0.0000
usemtl None
s off
f 169/260/55 170/261/55 172/262/55 171/263/55
f 171/263/56 172/262/56 176/264/56 175/265/56
f 175/265/57 176/264/57 174/266/57 173/267/57
f 173/267/58 174/266/58 170/268/58 169/269/58
f 171/270/59 175/265/59 173/267/59 169/271/59
f 176/264/60 172/272/60 170/273/60 174/266/60
o Cube.030_Cube.075
v -0.499623 0.000001 -13.576649
v -0.499623 0.752248 -13.576649
v -0.499623 0.000001 -14.487370
v -0.499623 0.752248 -14.487370
v 0.195071 0.000001 -13.576649
v 0.195071 0.752248 -13.576649
v 0.195071 0.000001 -14.487370
v 0.195071 0.752248 -14.487370
vt 0.375000 0.000000
vt 0.625000 0.000000
vt 0.625000 0.250000
vt 0.375000 0.250000
vt 0.625000 0.500000
vt 0.375000 0.500000
vt 0.625000 0.750000
vt 0.375000 0.750000
vt 0.625000 1.000000
vt 0.375000 1.000000
vt 0.125000 0.500000
vt 0.125000 0.750000
vt 0.875000 0.500000
vt 0.875000 0.750000
vn -1.0000 0.0000 0.0000
vn 0.0000 0.0000 -1.0000
vn 1.0000 0.0000 0.0000
vn 0.0000 0.0000 1.0000
vn 0.0000 -1.0000 0.0000
vn 0.0000 1.0000 0.0000
usemtl None
s off
f 177/274/61 178/275/61 180/276/61 179/277/61
f 179/277/62 180/276/62 184/278/62 183/279/62
f 183/279/63 184/278/63 182/280/63 181/281/63
f 181/281/64 182/280/64 178/282/64 177/283/64
f 179/284/65 183/279/65 181/281/65 177/285/65
f 184/278/66 180/286/66 178/287/66 182/280/66
o Cube.031_Cube.076
v -5.341846 -0.285951 -24.257885
v -5.341846 1.449709 -24.257885
v -5.341846 -0.285951 -25.480984
v -5.341846 1.449709 -25.480984
v -3.087758 -0.285951 -24.257885
v -3.087758 1.449709 -24.257885
v -3.087758 -0.285951 -25.480984
v -3.087758 1.449709 -25.480984
vt 0.375000 0.000000
vt 0.625000 0.000000
vt 0.625000 0.250000
vt 0.375000 0.250000
vt 0.625000 0.500000
vt 0.375000 0.500000
vt 0.625000 0.750000
vt 0.375000 0.750000
vt 0.625000 1.000000
vt 0.375000 1.000000
vt 0.125000 0.500000
vt 0.125000 0.750000
vt 0.875000 0.500000
vt 0.875000 0.750000
vn -1.0000 0.0000 0.0000
vn 0.0000 0.0000 -1.0000
vn 1.0000 0.0000 0.0000
vn 0.0000 0.0000 1.0000
vn 0.0000 -1.0000 0.0000
vn 0.0000 1.0000 0.0000
usemtl None
s off
f 185/288/67 186/289/67 188/290/67 187/291/67
f 187/291/68 188/290/68 192/292/68 191/293/68
f 191/293/69 192/292/69 190/294/69 189/295/69
f 189/295/70 190/294/70 186/296/70 185/297/70
f 187/298/71 191/293/71 189/295/71 185/299/71
f 192/292/72 188/300/72 186/301/72 190/294/72
